<svg id="Layer_1" data-name="Layer 1" xmlns="http://www.w3.org/2000/svg" viewBox="0 0 451 464.58"><defs><style>.cls-1{fill:none;fill-rule:evenodd;}</style></defs><path class="cls-1" d="M248,164H359c.6,6.47,4.74,27.95,8,32,2.93,2.59,7.3,3.11,11,5a211.27,211.27,0,0,1,24,14c24.62,17.05,45.37,44.12,58,73a148,148,0,0,1,12,53c.2,6.95-1.15,37.83-1,38,4.78,7.17,15.79,15.27,23,20-.63,1.75-.19,1-1,2-1.69,6.69-6.78,11.77-10,17-10.62,17.25-19.67,35.17-30,52-3.81,6.2-9.51,23.86-17,25-4.77-3.58-22-8-29-9-7.86,10-23.5,15.7-36,21-50.51,21.41-110.36,17.47-153-9-7.45-4.63-15.21-7.82-21-14-5.33,2.14-26.86,11.24-30,10-11.24-12.28-19.8-36-29-51-7.83-12.78-21.8-30.15-26-45,5.4-3.32,22-17.26,24-23-7.55-11.82,2-57.64,5-67,18.64-57.32,49.77-89.56,102-113Z" transform="translate(-80 -164)"/><path class="cls-1" d="M350,173H257v2c-4.39,7.13-1.22,20.36-6,27-2.83,2.5-6.1,2.3-10,4a177.07,177.07,0,0,0-29,16c-27.34,19.2-46.58,46.78-60,80-6.82,16.9-7.05,41.44-8,61-.23,4.86,3.33,15.44,2,18-4.92,7.53-14.48,16.07-22,21,4.06,8.92,10.08,17,15,25,11.36,18.54,20.91,37.71,32,56,8.7-3.83,18.34-9,29-10,6.27,9.14,18.32,13.11,28,19,29.12,17.72,82.22,26.55,123,13,14.48-4.81,29.92-12,42-20,5-3.35,8.65-8.85,15-11,2.94,2.3,26,8.87,28,8,10.55-11.33,15.77-28.52,24-42,7-11.49,18.15-24.35,22-38-6.47-3.88-21.78-14.5-22-24,7.31-11.35-.07-54.36-3-64-17.19-56.6-48.31-90.14-101-111C355.69,191.77,351,183.77,350,173Z" transform="translate(-80 -164)"/><path class="cls-1" d="M266,216c16.49-.3,33.1-.66,46,4,5.8,2.1,11.22,5.42,18,7v2h-3c-3.15-2.07-12.07-1.13-17-1v2c5.19.84,7.95,3.88,12,6v1H303c-4.09-4-12.23-4.75-16-9h17c1.18.8,1.68.77,4,1v-1c-7.88-3.16-28.3-10.39-40-8a104.15,104.15,0,0,1-20,2v-1h1C253.9,218,261.42,219.18,266,216Z" transform="translate(-80 -164)"/><path class="cls-1" d="M358,235h2C358.81,236.61,359.58,236.22,358,235Z" transform="translate(-80 -164)"/><path class="cls-1" d="M390,297l2,14h-9l1,8h9v5h9v5h-9a25.25,25.25,0,0,0-1,8c-.88,1.29-.89,2.47-1,5h6l7-13c4.27.23,7.38.67,9-2,.75-1.07.6-.95,1-3h-9v-1c.8-1.18.77-1.68,1-4h-9v-2c.69-1,1.29-4,2-5,1.84-1.24,5.7-1.09,9-1V297h5l-1-7h-5v-4h3l-2-9a20.06,20.06,0,0,1-7-1l-1-5h5c-.51-4.38-2-6.26-3-10h6c1.63,3.45,3.29,5.49,4,10h-5v2c.68.77,1.31,2.23,2,3,2.48,1.5,5.35.4,7,3,1.52,1.89,1.79,3.59,2,7h-3c.37,2.08.24,1.92,1,3,2.08,1.43,3.56.63,5,3,.78,1.06,1.49,3.69,2,5h-5l1,14h-9v8h9v5h9v4c-2.45.85-6.18,1-10,1l-1,12c-1.08.91-.08-.08-1,1-3.81-.08-7.57.14-10,1l-1,7a27.2,27.2,0,0,1,9,1c-1.33,2.84-2.41,4.16-3,8,3.19-.65,5-1,8,0-2.36,5.7-3.29,7.38-12,7-.59,3.72-1.33,3.3-2,7h4v2c-2.43,1.77-3.73,6.72-6,8h-6l-9,11H373l-4,5c4.07-.15,10.55-.64,13,1h-2c-6.47,8.86-19.4,9.2-28,16,2.9-.06,5.47-.05,7,1l-11,2c.32,2.84,1.06,2.07,0,4-2.42-1.73-12.57-1.71-15,0,22,1.81,46.21-1.64,64-6v-1c-2.9.06-5.47.05-7-1h1c3.64-3.57,8.78-4.94,13-8l7-8h10v1l-15,16c3.09-.09,6.33-.14,8,1h-1c-9.37,9.82-11.07.49-25,5-3.75,1.21-5.56,4.73-10,6v1h18v1h-2a41,41,0,0,1-12,7H370c-5.75,1.55-13.55,5.37-20,7-16.11,4.07-56.16-.06-63-8h3c1.18.8,1.68.77,4,1v-1c-8-3.81-11.18-7-24-7v2a13.23,13.23,0,0,1,4,6c-3.09-.09-6.33-.14-8,1h2c3.5,5.17,11.86,12.9,18,15h11c3.31,1.06,12,4.61,15,7-2.08.37-1.92.24-3,1h1c10.23,6.92,33.85,2.15,48,2v1h-2c-3.47,4.3-9.54,2.47-16,4-17.42,4.11-51.3,1.42-61-8,2.72,0,4.6,0,6-1-13.29-5.68-37.23-9.42-42-23,2.31.86,5.73,1.55,8,0-9.14-6.26-9.2-7.26-26-7-1.84-2.79-3.19-2.83-4-7,5.63-.12,12.93-.41,17,1v-2a18.72,18.72,0,0,1-3-5H225c-1.76-6.49-6.18-9.33-7-17H203a21.28,21.28,0,0,0-2-5h14l-2-11h5v-1c-1.24-1.84-1.09-5.7-1-9h-5c-.91-1.08.08-.08-1-1v-6h8c.09-3.22.41-6.33,0-7-2.35-1.54-4.28-.59-7,0v-7c.8-1,.35-.27,1-2h-7c-1,2.34-3.77,7.44-3,8v1a21.58,21.58,0,0,1,7-1c-.4,3.5-1.26,4.91-2,8-3.09-.09-6.33-.14-8,1-1.26,1.75-1.5,4.11-1,5,2.08,1.43,3.56.63,5,3-1.14,1.69-1.07,4.9-1,8h-5c-.1,4.06.07,8.35,1,11H189l-1-11h5V373h-5a21.58,21.58,0,0,1-1-7h8a21.58,21.58,0,0,0,1-7h-1v-1c-3.57.17-5.46.84-7,0h-1c.84-2.24,1.59-6,1-7-1.86-1.14-7.16-.83-9-2,1.52-1.89,1.79-3.59,2-7h9c1.78-4.06,3.27-8.56,5-13,3.81.08,7.57-.14,10-1l2-4c-4.27.23-7.38.67-9-2a11.55,11.55,0,0,0,2-3h-9v-1c4.45-5,3.59-7.32,14-7,4.69-13.61,17.68-12.1,22-21-2.33-.2-2.83-.19-4-1h2c3.48-4.45,16.07-7.82,21-12-2.53-.07-3.72-.12-5-1h1c5.52-3.85,15.66-2.58,21-6,.8-1,.35-.27,1-2-4.61-1.57-12.8-1.08-19-1-6,3.85-14.11,1.77-22,4-3.55,1-7.51,3.48-11,5v1c2.53.07,3.72.12,5,1h-2c-2,2-6.67,6.87-9,8-4.58,2.22-5.23-.65-8,3h-1v1c2.33.2,2.83.19,4,1-2.09,1.41-4,5.05-6,6h-6c-7.2,3.49-4.92,13.43-16,14v-1c3.17-3.09,4.47-10.54,8-13,5.07-3.53,6.07,2.21,9-6h1v-1c-3.58-.42-2.52.47-4-2,2.07-1.07,4.75-.84,7-2,3.11-1.6,4.44-6,8-8v-1c-2.72,0-4.6,0-6-1h1c5.25-5.43,8.75-2.46,15-6,4.27-2.41,6.37-6.4,12-8v-1H212v-1h1c6.41-5.18,20.07-2.94,27-8-2.72,0-4.6,0-6-1h2c3.24-2.07,9.36,0,14-1,12.69-2.77,42.38-9,54,0-2.9-.06-5.47-.05-7,1h2c3.23,2,14.56,1.93,19,4v1h-2c-2.41-1.36-2.48-1.42-4,1h2c9.79,8.87,23.45-.46,33,14-2.53.07-3.72.12-5,1,4,2.72,3.89,4.83,11,5-.4-3.16-1-3.8-2-6h6c-.45-10.48-6.7-10.63-18-10a17.82,17.82,0,0,0-3-4v-2c4.77.18,6.77,1,8-1-2.14-1.05-8.64-1.47-11-3h-1v-1c4.15.2,6.43.6,8-2-3.59-2.26-11.39-7.92-13-12h1c4,2.43,14-.49,18,2,5.35,1.61,12.16,7.69,15,12-3.28-.12-7.18-.24-9,1h1c2.72,1.66,9.57,1.75,12,3v2c-3-1-6.15-2.08-8,1,4.85,3.39,8.59,4.23,18,4,2.12,3.55,4.71,5.52,6,10-2.72,0-4.6,0-6,1,2.12,1.46,2.79,2.62,4,5a20.06,20.06,0,0,1,7,1l3,8c-3.25.83-1.53-.49-3,2,.8,1,.35.27,1,2a17,17,0,0,1,6,1c.4,3.16,1,3.8,2,6Z" transform="translate(-80 -164)"/><path class="cls-1" d="M382,236c5.17,2.93,11.27,7.66,13,14h-4C388.11,245.15,383.71,241.91,382,236Z" transform="translate(-80 -164)"/><path class="cls-1" d="M381,250h6v2C383.14,251.91,382.74,252,381,250Z" transform="translate(-80 -164)"/><path class="cls-1" d="M392,252h5c1,1.77,1.26,1.68,2,4h-1C395.08,254.08,393.59,255.64,392,252Z" transform="translate(-80 -164)"/><path class="cls-1" d="M385,255h5c1.13,2.33,2.14,3.32,3,6h-6Z" transform="translate(-80 -164)"/><path class="cls-1" d="M354,277c1.34,2.15,2.75,3.58,4,6,1.75-.63,1-.19,2-1,.75-1.07.6-.95,1-3-.8-1-.35-.27-1-2Z" transform="translate(-80 -164)"/><path class="cls-1" d="M168,311c-.56,4.66-2,7.45-7,8l1-6C164.28,311.78,164.25,311.36,168,311Z" transform="translate(-80 -164)"/><path class="cls-1" d="M169,319h4v2c-2.37,2.07-1.47,2.52-6,3v-2A11.55,11.55,0,0,0,169,319Z" transform="translate(-80 -164)"/><path class="cls-1" d="M278,342h-9v8h9c.68,3.54,1.62,6.14,4,8,.6.24,4.37-1.19,7,0s4.81,5.32,8,7v1c-2.9-.06-5.47-.05-7,1h2c8.36,6.08,21.88-.73,32-1,2.05-3.05,4.63-4.16,6-8h-5c-1,.8-.27.35-2,1v-3c1.95-1.58,2.79-3.51,2-5-1.69-1.14-4.9-1.07-8-1v-8h9c-.81-6.34-4.2-8.85-7-13,4.15.2,6.43.6,8-2l-3-1c-3.54-3.23-26.61-5.49-31-2,2.9-.06,5.47-.05,7,1h-1c-5,5.14-9.49,1.61-15,5A19.1,19.1,0,0,0,278,342Z" transform="translate(-80 -164)"/><path class="cls-1" d="M177,324c3.25.83,1.53-.49,3,2-2.07,1.28-2.3,2.08-5,3v-2A11.55,11.55,0,0,0,177,324Z" transform="translate(-80 -164)"/><path class="cls-1" d="M165,329c3.25.83,1.53-.49,3,2a11.55,11.55,0,0,0-2,3c-.87-.74-1.13-1.26-2-2Z" transform="translate(-80 -164)"/><path class="cls-1" d="M212,340v2h3v-2Z" transform="translate(-80 -164)"/><path class="cls-1" d="M202,342l-5,7v2h1c1.42-1,3.27-1,6-1v-2c1.05-1.44,1.56-3.92,2-6Z" transform="translate(-80 -164)"/><path class="cls-1" d="M381,342c-.4,3.5-1.26,4.91-2,8h2c2.05-3.05,4.63-4.16,6-8Z" transform="translate(-80 -164)"/><path class="cls-1" d="M439,356c2.47,1.29.68-.43,2,2h-1c-1,.8-.27.35-2,1Z" transform="translate(-80 -164)"/><path class="cls-1" d="M446,366h-3v-2c3.15-1.7,2.11-4.22,5-6v1h1C447.88,362.38,446.79,362,446,366Z" transform="translate(-80 -164)"/><path class="cls-1" d="M434,366h4l-1,5c-2.28,1.22-2.25,1.64-6,2v-1C433.2,370.29,433.49,369.58,434,366Z" transform="translate(-80 -164)"/><path class="cls-1" d="M440,373c-.2,2.33-.19,2.83-1,4-2.41,7.93-4.8,3.22-9,7-2.38,2.14-2.3,8.27-5,10h-8v-1h1l7-10h6C435.3,379.93,431.48,374.11,440,373Z" transform="translate(-80 -164)"/><path class="cls-1" d="M185,399h-9l-1-5h9A15.61,15.61,0,0,1,185,399Z" transform="translate(-80 -164)"/><path class="cls-1" d="M402,394h8v2c-3.39,2.14-4.68,3.05-11,3C399.88,396.28,400.71,396.06,402,394Z" transform="translate(-80 -164)"/><path class="cls-1" d="M191,399h8v2c2.63,3.51,3.21,11,5,15h-8v-1h-1C194.17,408.54,191.45,406.26,191,399Z" transform="translate(-80 -164)"/><path class="cls-1" d="M254,415c1.72.88,1.28.89,3,0Z" transform="translate(-80 -164)"/><path class="cls-1" d="M213,416c.45,3.26,1.77,4.71,1,6v1c-2.61-.81-4-.43-6-1l-3-6Z" transform="translate(-80 -164)"/><path class="cls-1" d="M264,416c.23,3.76.87,4.56,2,7,2.84-.92,3.88-.61,7,0v-2C268.74,419.49,269,417,264,416Z" transform="translate(-80 -164)"/><path class="cls-1" d="M190,422h5c1.63,2.58,3,3.47,4,7h-6C192.07,425.93,190.92,425.25,190,422Z" transform="translate(-80 -164)"/><path class="cls-1" d="M247,422c1.85,7.16,5.58,7.52,15,7v-1a27,27,0,0,1-8-6Z" transform="translate(-80 -164)"/><path class="cls-1" d="M213,429h5c1.56,2.7,3,4.45,4,8h-5Z" transform="translate(-80 -164)"/><path class="cls-1" d="M215,437c1.4,7.4,7.48,9.57,9,17h-1v-1c-5.52-3.25-11.93-10.49-14-17h1C211.29,436.88,212.47,436.89,215,437Z" transform="translate(-80 -164)"/><path class="cls-1" d="M360,461h5v2h-7v-1C359.75,461.37,359,461.81,360,461Z" transform="translate(-80 -164)"/><path class="cls-1" d="M286,561h9v36h-9Z" transform="translate(-80 -164)"/><path class="cls-1" d="M302,561h9c4.15,6.58,11.55,16.68,18,21V561h9v36h-9c-4.14-6.74-11.42-16.66-18-21v21h-9Z" transform="translate(-80 -164)"/><path class="cls-1" d="M346,561h27v8H355v8h15v8H355v12h-9Z" transform="translate(-80 -164)"/><path class="cls-1" d="M380,561h9v36h-9Z" transform="translate(-80 -164)"/><path class="cls-1" d="M395,561h9c4.15,6.58,11.55,16.68,18,21V561h9v36h-9c-4.14-6.74-11.42-16.66-18-21v21h-9Z" transform="translate(-80 -164)"/><path class="cls-1" d="M439,561h9v36h-9Z" transform="translate(-80 -164)"/><path class="cls-1" d="M454,561h34v8H475v28h-9V569H454Z" transform="translate(-80 -164)"/><path class="cls-1" d="M516,597h-9V582c-5.93-4.67-11.1-14.43-15-21h10l9,14h2c2.23-8.1,6.38-14.46,18-14v1C522.65,570.06,515.89,580.21,516,597Z" transform="translate(-80 -164)"/><path class="cls-1" d="M80,606H95c2,8.57,10.31,10.25,20,8,1.22-2.28,1.64-2.25,2-6-13.55-7.74-36.16-5.15-36-27,2.93-3.88,4-9.31,8-12,17.62-11.72,38.69-1,42,16H116c-1.3-3.85-3.58-4.48-6-7-7.88-.39-12.89.41-14,7,9.71,4.9,30.29,6.18,34,17,11,13.55-12.17,29.89-28,26-11.36-2.79-14.28-8.07-21-15Z" transform="translate(-80 -164)"/><path class="cls-1" d="M165,565h17c5.17,1.48,21.8,10.15,19,15a31.88,31.88,0,0,1-12,7c-3.15-9.85-16-9.56-26-7-2.05,3-4.64,4.16-6,8-4.48,5.46-.49,13.85,1,19,5.78,3.94,15.25,10.8,25,5,3.19-1.9,4.3-5.43,8-7,2.39,3,7.48,5.26,11,7v1h-1c-8.28,16.88-42.18,20.13-54,4-7-9.61-9.59-27.83-2-39C149.75,571,158.2,570.06,165,565Z" transform="translate(-80 -164)"/><path class="cls-1" d="M211,565c14.45-.25,34.19-2,43,4,3.69,2.51,5,7.76,8,11,2.42,26.34-8.12,33.74-36,33v14H211Z" transform="translate(-80 -164)"/><path class="cls-1" d="M226,579v20c6.24.1,13.21,0,18-1,6.21-9.12,4.94-11.92-2-19Z" transform="translate(-80 -164)"/><path class="cls-1" d="M286,611h91c9.07,0,30.47-1.46,36,2h-5c.21,4.12,0,6.22,0,12,2.53.07,3.72.12,5,1-40.65,0-84.77,1-127,1Z" transform="translate(-80 -164)"/></svg>